<svg version="1.1" viewBox="0.0 0.0 1205.1548556430446 464.81102362204723" fill="none" stroke="none" stroke-linecap="square" stroke-miterlimit="10" xmlns:xlink="http://www.w3.org/1999/xlink" xmlns="http://www.w3.org/2000/svg"><clipPath id="p.0"><path d="m0 0l1205.1549 0l0 464.81104l-1205.1549 0l0 -464.81104z" clip-rule="nonzero"/></clipPath><g clip-path="url(#p.0)"><path fill="#000000" fill-opacity="0.0" d="m0 0l1205.1549 0l0 464.81104l-1205.1549 0z" fill-rule="evenodd"/><path fill="#ffffff" d="m153.83727 324.88025l0 -122.157486l0 0c0 -67.46571 53.204086 -122.15748 118.83464 -122.15748c65.630585 0 118.834656 54.691765 118.834656 122.15748l0 122.157486z" fill-rule="evenodd"/><path fill="#ffffff" d="m111.43643 343.64148l0 0c0 -2.5802307 2.09169 -4.671936 4.671913 -4.671936l313.11288 0c1.2390442 0 2.4273682 0.49221802 3.3035278 1.3683777c0.87615967 0.87615967 1.3683777 2.0644836 1.3683777 3.3035583l0 18.687653c0 2.5802307 -2.0917053 4.6719055 -4.6719055 4.6719055l-313.11288 0c-2.580223 0 -4.671913 -2.0916748 -4.671913 -4.6719055z" fill-rule="evenodd"/><path fill="#000000" fill-opacity="0.0" d="m164.40668 280.18423l0 0c0.13214111 33.516815 -17.870102 61.265564 -43.798904 67.51178l-15.14669 -72.521576z" fill-rule="evenodd"/><path fill="#000000" fill-opacity="0.0" d="m164.40668 280.18423l0 0c0.13214111 33.516815 -17.870102 61.265564 -43.798904 67.51178" fill-rule="evenodd"/><path stroke="#ffffff" stroke-width="16.0" stroke-linejoin="round" stroke-linecap="butt" d="m164.40668 280.18423l0 0c0.13214111 33.516815 -17.870102 61.265564 -43.798904 67.51178" fill-rule="evenodd"/><path fill="#000000" fill-opacity="0.0" d="m379.28207 273.64587l0 0c-2.0167236 19.563782 1.8876038 38.52304 10.8220215 52.55139c8.934418 14.028351 22.136627 21.928833 36.593964 21.89859l5.824463 -72.350464z" fill-rule="evenodd"/><path fill="#000000" fill-opacity="0.0" d="m379.28207 273.64587l0 0c-2.0167236 19.563782 1.8876038 38.52304 10.8220215 52.55139c8.934418 14.028351 22.136627 21.928833 36.593964 21.89859" fill-rule="evenodd"/><path stroke="#ffffff" stroke-width="16.0" stroke-linejoin="round" stroke-linecap="butt" d="m379.28207 273.64587l0 0c-2.0167236 19.563782 1.8876038 38.52304 10.8220215 52.55139c8.934418 14.028351 22.136627 21.928833 36.593964 21.89859" fill-rule="evenodd"/><path fill="#ffffff" d="m338.79663 345.40543l0 0c-0.51345825 52.804962 -30.644287 95.12048 -67.468506 94.75232c-36.824234 -0.36816406 -66.540726 -43.282074 -66.540726 -96.09216z" fill-rule="evenodd"/><path fill="#ffffff" d="m236.45999 128.58685l0 0c-16.124985 -20.873756 -12.980392 -52.60161 7.0236206 -70.866135l0 0c9.606262 -8.770939 21.895172 -13.200653 34.1633 -12.314655c12.268127 0.8859978 23.510529 7.015133 31.254028 17.039062l0 0c16.12497 20.873756 12.980377 52.60161 -7.0236206 70.86614l0 0c-20.004028 18.264542 -49.29236 16.149338 -65.41733 -4.724411zm65.51074 -39.87227l0 0c-2.1008606 -13.936317 -12.619659 -24.169617 -25.773987 -25.07444c-13.154358 -0.9048271 -25.755417 7.738167 -30.87616 21.177734zm-58.58055 13.602814l0 0c2.1008606 13.93631 12.619644 24.16961 25.774002 25.074432c13.154327 0.90483093 25.755402 -7.738167 30.87616 -21.177734z" fill-rule="evenodd"/><path fill="#000000" fill-opacity="0.0" d="m439.34558 80.85766l0 0c16.877808 9.994698 29.332855 27.02636 34.625244 47.348213c5.2923584 20.321854 2.9884949 42.26924 -6.4047546 61.013992l-63.637787 -37.685043z" fill-rule="evenodd"/><path fill="#000000" fill-opacity="0.0" d="m439.34558 80.85766l0 0c16.877808 9.994698 29.332855 27.02636 34.625244 47.348213c5.2923584 20.321854 2.9884949 42.26924 -6.4047546 61.013992" fill-rule="evenodd"/><path stroke="#ffffff" stroke-width="12.0" stroke-linejoin="round" stroke-linecap="butt" d="m439.34558 80.85766l0 0c16.877808 9.994698 29.332855 27.02636 34.625244 47.348213c5.2923584 20.321854 2.9884949 42.26924 -6.4047546 61.013992" fill-rule="evenodd"/><path fill="#000000" fill-opacity="0.0" d="m434.9376 104.79537c15.262726 18.467842 21.808838 43.858757 17.692535 68.62553l-71.29135 -14.015747z" fill-rule="evenodd"/><path fill="#000000" fill-opacity="0.0" d="m434.9376 104.79537c15.262726 18.467842 21.808838 43.858757 17.692535 68.62553" fill-rule="evenodd"/><path stroke="#ffffff" stroke-width="12.0" stroke-linejoin="round" stroke-linecap="butt" d="m434.9376 104.79537c15.262726 18.467842 21.808838 43.858757 17.692535 68.62553" fill-rule="evenodd"/><path fill="#000000" fill-opacity="0.0" d="m103.34128 80.85766l0 0c-16.877792 9.994698 -29.332855 27.02636 -34.62522 47.348213c-5.292366 20.321854 -2.9885101 42.26924 6.404747 61.013992l63.637802 -37.685043z" fill-rule="evenodd"/><path fill="#000000" fill-opacity="0.0" d="m103.34128 80.85766l0 0c-16.877792 9.994698 -29.332855 27.02636 -34.62522 47.348213c-5.292366 20.321854 -2.9885101 42.26924 6.404747 61.013992" fill-rule="evenodd"/><path stroke="#ffffff" stroke-width="12.0" stroke-linejoin="round" stroke-linecap="butt" d="m103.34128 80.85766l0 0c-16.877792 9.994698 -29.332855 27.02636 -34.62522 47.348213c-5.292366 20.321854 -2.9885101 42.26924 6.404747 61.013992" fill-rule="evenodd"/><path fill="#000000" fill-opacity="0.0" d="m107.749275 104.79537c-15.262733 18.467842 -21.808838 43.858757 -17.692535 68.62553l71.29134 -14.015747z" fill-rule="evenodd"/><path fill="#000000" fill-opacity="0.0" d="m107.749275 104.79537c-15.262733 18.467842 -21.808838 43.858757 -17.692535 68.62553" fill-rule="evenodd"/><path stroke="#ffffff" stroke-width="12.0" stroke-linejoin="round" stroke-linecap="butt" d="m107.749275 104.79537c-15.262733 18.467842 -21.808838 43.858757 -17.692535 68.62553" fill-rule="evenodd"/><path fill="#000000" fill-opacity="0.0" d="m494.18362 28.782152l667.71655 0l0 407.24408l-667.71655 0z" fill-rule="evenodd"/><path fill="#ffffff" d="m610.3655 171.53839l-41.921875 0l-6.71875 19.84375l-28.640625 0l40.640625 -112.3125l31.671875 0l40.640625 112.3125l-28.953125 0l-6.71875 -19.84375zm-7.046875 -21.109375l-13.921875 -41.125l-13.75 41.125l27.671875 0zm82.40442 -77.453125l0 118.40625l-27.359375 0l0 -118.40625l27.359375 0zm103.99689 72.328125q0 3.84375 -0.484375 8.0l-61.90625 0q0.625 8.3125 5.34375 12.71875q4.734375 4.40625 11.609375 4.40625q10.234375 0 14.234375 -8.640625l29.125 0q-2.234375 8.796875 -8.078125 15.84375q-5.84375 7.03125 -14.640625 11.03125q-8.796875 4.0 -19.6875 4.0q-13.109375 0 -23.359375 -5.59375q-10.234375 -5.609375 -16.0 -16.0q-5.75 -10.40625 -5.75 -24.328125q0 -13.921875 5.671875 -24.3125q5.6875 -10.40625 15.921875 -16.0q10.234375 -5.609375 23.515625 -5.609375q12.96875 0 23.046875 5.4375q10.078125 5.4375 15.75 15.53125q5.6875 10.078125 5.6875 23.515625zm-28.0 -7.203125q0 -7.03125 -4.796875 -11.1875q-4.796875 -4.171875 -12.0 -4.171875q-6.875 0 -11.609375 4.0q-4.71875 4.0 -5.828125 11.359375l34.234375 0zm69.76318 -21.125q4.796875 -7.359375 12.0 -11.59375q7.203125 -4.234375 16.0 -4.234375l0 28.953125l-7.515625 0q-10.25 0 -15.375 4.40625q-5.109375 4.390625 -5.109375 15.4375l0 41.4375l-27.359375 0l0 -89.28125l27.359375 0l0 14.875zm90.88629 51.203125l0 23.203125l-13.921875 0q-14.890625 0 -23.21875 -7.28125q-8.3125 -7.28125 -8.3125 -23.765625l0 -35.515625l-10.875 0l0 -22.71875l10.875 0l0 -21.765625l27.359375 0l0 21.765625l17.921875 0l0 22.71875l-17.921875 0l0 35.84375q0 4.0 1.921875 5.765625q1.921875 1.75 6.40625 1.75l9.765625 0zm9.756958 -21.59375q0 -13.765625 5.1875 -24.15625q5.203125 -10.40625 14.15625 -16.0q8.96875 -5.609375 20.015625 -5.609375q9.4375 0 16.546875 3.84375q7.125 3.84375 10.96875 10.078125l0 -12.640625l27.359375 0l0 89.28125l-27.359375 0l0 -12.640625q-4.0 6.234375 -11.125 10.078125q-7.109375 3.84375 -16.546875 3.84375q-10.890625 0 -19.859375 -5.671875q-8.953125 -5.6875 -14.15625 -16.171875q-5.1875 -10.484375 -5.1875 -24.234375zm66.875 0.15625q0 -10.234375 -5.6875 -16.15625q-5.671875 -5.921875 -13.828125 -5.921875q-8.15625 0 -13.84375 5.84375q-5.6875 5.828125 -5.6875 16.078125q0 10.234375 5.6875 16.234375q5.6875 6.0 13.84375 6.0q8.15625 0 13.828125 -5.921875q5.6875 -5.921875 5.6875 -16.15625zm83.515015 45.921875q-11.671875 0 -20.796875 -4.0q-9.125 -4.0 -14.40625 -10.953125q-5.265625 -6.96875 -5.90625 -15.609375l27.03125 0q0.484375 4.640625 4.3125 7.53125q3.84375 2.875 9.453125 2.875q5.125 0 7.921875 -2.0q2.796875 -2.0 2.796875 -5.203125q0 -3.84375 -4.0 -5.671875q-4.0 -1.84375 -12.953125 -4.09375q-9.609375 -2.234375 -16.015625 -4.71875q-6.390625 -2.484375 -11.03125 -7.84375q-4.640625 -5.359375 -4.640625 -14.46875q0 -7.6875 4.234375 -14.0q4.25 -6.328125 12.484375 -10.0q8.234375 -3.6875 19.59375 -3.6875q16.8125 0 26.484375 8.328125q9.6875 8.3125 11.125 22.078125l-25.28125 0q-0.640625 -4.640625 -4.078125 -7.359375q-3.4375 -2.71875 -9.046875 -2.71875q-4.796875 0 -7.359375 1.84375q-2.5625 1.828125 -2.5625 5.03125q0 3.84375 4.078125 5.765625q4.09375 1.90625 12.734375 3.828125q9.90625 2.5625 16.140625 5.046875q6.25 2.484375 10.96875 8.0q4.71875 5.515625 4.890625 14.796875q0 7.84375 -4.40625 14.0q-4.40625 6.15625 -12.640625 9.6875q-8.234375 3.515625 -19.125 3.515625z" fill-rule="nonzero"/><path fill="#ffffff" d="m739.1574 307.2259q0 9.75 -4.484375 17.84375q-4.46875 8.078125 -13.75 13.046875q-9.28125 4.953125 -23.046875 4.953125l-16.953125 0l0 40.3125l-27.359375 0l0 -112.3125l44.3125 0q13.453125 0 22.71875 4.640625q9.28125 4.625 13.921875 12.796875q4.640625 8.15625 4.640625 18.71875zm-43.359375 14.078125q7.84375 0 11.6875 -3.671875q3.84375 -3.6875 3.84375 -10.40625q0 -6.71875 -3.84375 -10.390625q-3.84375 -3.6875 -11.6875 -3.6875l-14.875 0l0 28.15625l14.875 0zm143.19946 -14.078125q0 9.75 -4.484375 17.84375q-4.46875 8.078125 -13.75 13.046875q-9.28125 4.953125 -23.046875 4.953125l-16.953125 0l0 40.3125l-27.359375 0l0 -112.3125l44.3125 0q13.453125 0 22.71875 4.640625q9.28125 4.625 13.921875 12.796875q4.640625 8.15625 4.640625 18.71875zm-43.359375 14.078125q7.84375 0 11.6875 -3.671875q3.84375 -3.6875 3.84375 -10.40625q0 -6.71875 -3.84375 -10.390625q-3.84375 -3.6875 -11.6875 -3.6875l-14.875 0l0 28.15625l14.875 0zm132.16815 -14.71875q-3.046875 -5.609375 -8.734375 -8.5625q-5.671875 -2.953125 -13.34375 -2.953125q-13.28125 0 -21.28125 8.71875q-8.0 8.71875 -8.0 23.28125q0 15.515625 8.390625 24.234375q8.40625 8.71875 23.125 8.71875q10.078125 0 17.03125 -5.109375q6.96875 -5.125 10.171875 -14.734375l-34.71875 0l0 -20.15625l59.515625 0l0 25.4375q-3.046875 10.234375 -10.328125 19.046875q-7.265625 8.796875 -18.46875 14.234375q-11.203125 5.4375 -25.28125 5.4375q-16.640625 0 -29.6875 -7.28125q-13.03125 -7.28125 -20.3125 -20.234375q-7.28125 -12.96875 -7.28125 -29.59375q0 -16.640625 7.28125 -29.6875q7.28125 -13.046875 20.234375 -20.3125q12.96875 -7.28125 29.609375 -7.28125q20.15625 0 33.984375 9.765625q13.84375 9.75 18.328125 27.03125l-30.234375 0zm74.71692 -35.515625l0 112.3125l-27.359375 0l0 -112.3125l27.359375 0z" fill-rule="nonzero"/></g></svg>